<svg width="200" height="121" viewBox="0 0 200 121" fill="none" xmlns="http://www.w3.org/2000/svg">
<g clip-path="url(#clip0_108_166)">
<path d="M153.125 118.934C150.564 116.77 149.009 113.352 149.417 110.025C149.825 106.698 152.351 103.639 155.628 102.932C158.905 102.226 162.64 104.182 163.636 107.383C164.183 101.211 164.815 94.7809 168.096 89.5252C171.067 84.7663 176.213 81.3612 181.79 80.752C187.367 80.1428 193.239 82.4436 196.717 86.8455C200.195 91.2474 201.047 97.6468 198.611 102.7C196.816 106.423 193.51 109.194 190.046 111.448C178.852 118.67 165.427 121.607 152.24 119.719L153.125 118.934Z" fill="#F2F2F2"/>
<path d="M191.202 82.5711C186.6 86.3193 182.378 90.5114 178.598 95.0866C172.682 102.222 167.894 110.223 164.402 118.809C164.147 119.436 165.164 119.708 165.417 119.089C171.13 105.134 180.251 92.8345 191.946 83.3149C192.471 82.8873 191.723 82.1471 191.202 82.5711Z" fill="white"/>
<path d="M64.3832 118.346C67.9001 115.374 70.0363 110.68 69.4761 106.11C68.9159 101.54 65.4461 97.3382 60.9452 96.3677C56.4443 95.3972 51.3136 98.0837 49.9465 102.48C49.1941 94.0037 48.3272 85.1719 43.8204 77.9532C39.7397 71.4169 32.6718 66.7399 25.0118 65.9032C17.3517 65.0665 9.28672 68.2266 4.50944 74.2726C-0.267838 80.3186 -1.43753 89.1081 1.90835 96.0494C4.37314 101.163 8.91416 104.968 13.672 108.064C28.8512 117.941 47.681 122.061 65.5978 119.424" fill="#F2F2F2"/>
<path d="M12.0842 68.4017C18.4047 73.5498 24.2031 79.3076 29.3955 85.5917C34.5887 91.8694 39.1608 98.636 43.0474 105.796C45.2199 109.813 47.1715 113.945 48.8935 118.175C49.2446 119.035 47.8475 119.41 47.5003 118.559C44.4503 111.103 40.6767 103.963 36.2339 97.2425C31.8126 90.5464 26.7523 84.295 21.1238 78.5762C17.9404 75.3431 14.5816 72.2876 11.0626 69.4233C10.3413 68.836 11.3689 67.8192 12.0842 68.4017Z" fill="white"/>
<path d="M143.563 120.024H59.6552V33.9323C59.6552 15.6156 74.5568 0.713928 92.8735 0.713928H110.345C128.662 0.713928 143.563 15.6156 143.563 33.9323V120.024Z" fill="#F2F2F2"/>
<path d="M126.092 120.024H59.6551V33.9323C59.6368 26.9138 61.8593 20.0726 65.999 14.4049C66.1516 14.1969 66.3038 13.9916 66.4608 13.7885C68.4631 11.1624 70.846 8.84951 73.5307 6.92635C73.6823 6.816 73.8346 6.70757 73.9891 6.59914C76.2356 5.04453 78.6657 3.77366 81.2241 2.81546C81.376 2.75788 81.5307 2.70018 81.6854 2.64484C83.9992 1.81911 86.3978 1.25349 88.8367 0.958423C88.9879 0.937768 89.1432 0.921605 89.2984 0.905442C91.6752 0.651311 94.0723 0.651311 96.4491 0.905442C96.6039 0.921605 96.7591 0.937766 96.9121 0.958644C99.3505 1.25373 101.748 1.81928 104.062 2.64485C104.216 2.70019 104.371 2.75789 104.523 2.81558C107.05 3.76169 109.452 5.01359 111.674 6.54336C111.829 6.64943 111.983 6.75787 112.136 6.8663C113.64 7.94049 115.054 9.13721 116.362 10.4442C117.41 11.4926 118.388 12.6101 119.287 13.7892C119.443 13.9916 119.595 14.1969 119.748 14.4046C123.888 20.0724 126.11 26.9137 126.092 33.9323V120.024Z" fill="#CCCCCC"/>
<path d="M120.69 81.5186C122.721 81.5186 124.368 79.8718 124.368 77.8404C124.368 75.809 122.721 74.1622 120.69 74.1622C118.658 74.1622 117.011 75.809 117.011 77.8404C117.011 79.8718 118.658 81.5186 120.69 81.5186Z" fill="#4ADE80"/>
<path d="M136.689 117.446H133.871L132.53 106.575L136.69 106.575L136.689 117.446Z" fill="#FFB8B8"/>
<path d="M131.858 116.64H137.293V120.063H128.436C128.436 119.613 128.524 119.168 128.696 118.753C128.868 118.338 129.12 117.961 129.438 117.643C129.756 117.325 130.133 117.073 130.548 116.901C130.963 116.729 131.408 116.64 131.858 116.64Z" fill="#2F2E41"/>
<path d="M150.712 117.446H147.894L146.553 106.575L150.713 106.575L150.712 117.446Z" fill="#FFB8B8"/>
<path d="M145.881 116.64H151.316V120.063H142.459C142.459 119.613 142.547 119.168 142.719 118.753C142.891 118.338 143.143 117.961 143.461 117.643C143.779 117.325 144.156 117.073 144.571 116.901C144.986 116.729 145.431 116.64 145.881 116.64Z" fill="#2F2E41"/>
<path d="M122.551 78.569C122.348 78.2702 122.214 77.9307 122.156 77.5742C122.099 77.2178 122.121 76.8531 122.219 76.5058C122.318 76.1586 122.492 75.8373 122.729 75.5645C122.965 75.2917 123.258 75.074 123.588 74.9269L133.169 48.5208L137.883 51.0935L126.944 76.3281C127.154 76.8984 127.148 77.526 126.927 78.0921C126.706 78.6582 126.284 79.1235 125.743 79.3997C125.201 79.6759 124.577 79.7439 123.989 79.5908C123.401 79.4377 122.889 79.0741 122.551 78.569Z" fill="#FFB8B8"/>
<path d="M149.273 83.5309C148.959 83.3513 148.689 83.1053 148.482 82.81C148.274 82.5148 148.133 82.1776 148.07 81.8222C148.006 81.4668 148.022 81.1018 148.115 80.7529C148.208 80.404 148.376 80.0798 148.608 79.8029L145.64 51.8698L151.005 52.1149L152.238 79.5908C152.677 80.011 152.947 80.5778 152.996 81.1836C153.046 81.7895 152.871 82.3924 152.505 82.878C152.14 83.3637 151.609 83.6984 151.013 83.8187C150.417 83.9391 149.798 83.8366 149.273 83.5309Z" fill="#FFB8B8"/>
<path d="M140.714 43.6297C143.832 43.6297 146.36 41.1018 146.36 37.9835C146.36 34.8652 143.832 32.3373 140.714 32.3373C137.596 32.3373 135.068 34.8652 135.068 37.9835C135.068 41.1018 137.596 43.6297 140.714 43.6297Z" fill="#FFB8B8"/>
<path d="M149.237 77.178H132.214L132.235 77.0456C132.265 76.8475 135.269 57.1745 133.054 50.7384C132.831 50.1059 132.851 49.4136 133.109 48.7947C133.366 48.1757 133.844 47.6739 134.449 47.3859C137.615 45.895 143.692 44.0592 148.821 48.5144C149.576 49.1808 150.166 50.0137 150.543 50.9472C150.92 51.8806 151.075 52.8891 150.996 53.8928L149.237 77.178Z" fill="#4ADE80"/>
<path d="M135.484 60.0819L127.82 58.5272L131.412 50.0146C131.627 49.1901 132.161 48.4845 132.895 48.0526C133.63 47.6207 134.505 47.4978 135.33 47.7108C136.155 47.9238 136.862 48.4553 137.296 49.1887C137.73 49.9222 137.855 50.7977 137.644 51.6232L135.484 60.0819Z" fill="#4ADE80"/>
<path d="M145.299 62.9687L144.838 52.4074C144.489 50.4221 145.625 48.5453 147.373 48.2385C149.122 47.9329 150.829 49.3098 151.18 51.3098L152.912 61.1782L145.299 62.9687Z" fill="#4ADE80"/>
<path d="M148.67 75.9136C151.409 86.345 151.708 99.6077 150.969 114.074L147.291 113.615L140.624 86.0285L136.946 114.074L132.808 113.845C131.572 98.6654 130.368 85.6342 132.348 77.063L148.67 75.9136Z" fill="#2F2E41"/>
<path d="M144.434 42.347C143.381 43.469 141.425 42.8667 141.287 41.3339C141.277 41.2149 141.277 41.0951 141.29 40.9762C141.361 40.2973 141.753 39.6808 141.659 38.9639C141.638 38.7855 141.571 38.6155 141.466 38.4699C140.626 37.3459 138.656 38.9727 137.864 37.9551C137.378 37.3312 137.949 36.3489 137.576 35.6516C137.084 34.7312 135.627 35.1852 134.713 34.6812C133.697 34.1204 133.758 32.5605 134.427 31.6116C135.243 30.4545 136.674 29.837 138.087 29.748C139.501 29.659 140.904 30.0411 142.224 30.5552C143.723 31.1395 145.209 31.9469 146.132 33.265C147.254 34.8681 147.362 37.0232 146.801 38.8976C146.459 40.0379 145.294 41.4308 144.434 42.347Z" fill="#2F2E41"/>
<path d="M193.099 120.172H23.3764C23.304 120.172 23.2346 120.143 23.1834 120.092C23.1322 120.04 23.1035 119.971 23.1035 119.898C23.1035 119.826 23.1322 119.757 23.1834 119.705C23.2346 119.654 23.304 119.625 23.3764 119.625H193.099C193.172 119.625 193.241 119.654 193.292 119.705C193.343 119.757 193.372 119.826 193.372 119.898C193.372 119.971 193.343 120.04 193.292 120.092C193.241 120.143 193.172 120.172 193.099 120.172Z" fill="#3F3D56"/>
<path d="M107.816 95.0817H77.931C77.5374 95.0838 77.1591 94.9298 76.879 94.6533C76.5988 94.3768 76.4398 94.0005 76.4368 93.6069V26.9013C76.4398 26.5077 76.5988 26.1314 76.879 25.855C77.1591 25.5785 77.5374 25.4244 77.931 25.4265H107.816C108.21 25.4244 108.588 25.5785 108.868 25.855C109.148 26.1314 109.307 26.5077 109.31 26.9013V93.6069C109.307 94.0005 109.148 94.3768 108.868 94.6533C108.588 94.9298 108.21 95.0838 107.816 95.0817Z" fill="white"/>
<path d="M109.31 47.0104H76.4368V47.4701H109.31V47.0104Z" fill="#CCCCCC"/>
<path d="M109.425 73.2427H76.5518V73.7024H109.425V73.2427Z" fill="#CCCCCC"/>
<path d="M87.2414 25.4265H86.7816V95.3116H87.2414V25.4265Z" fill="#CCCCCC"/>
<path d="M98.7356 25.4265H98.2759V95.3116H98.7356V25.4265Z" fill="#CCCCCC"/>
</g>
<defs>
<clipPath id="clip0_108_166">
<rect width="200" height="119.572" fill="white" transform="translate(0 0.713928)"/>
</clipPath>
</defs>
</svg>
