<svg width="32" height="32" viewBox="0 0 32 32" fill="none" xmlns="http://www.w3.org/2000/svg">
<g clip-path="url(#clip0_108_98)">
<path d="M14.4976 27.1281C14.5101 26.7675 14.9882 26.365 15.3913 26.3763C15.7219 26.3856 15.9982 26.675 15.9907 27.0038C15.9819 27.3756 15.4851 27.7906 15.0726 27.77C14.7301 27.7531 14.4857 27.4806 14.4982 27.1281H14.4976Z" fill="black"/>
<path d="M17.7731 24.8894C18.1056 24.8956 18.3768 25.1781 18.3743 25.515C18.3718 25.87 17.8949 26.295 17.4981 26.2956C17.1524 26.2956 16.8687 26.0013 16.8793 25.6525C16.8899 25.2969 17.3756 24.8819 17.7724 24.8894H17.7731Z" fill="black"/>
<path d="M20.7588 24.0537C20.7438 24.4162 20.2538 24.8275 19.8581 24.81C19.5244 24.795 19.2525 24.4981 19.2688 24.1656C19.2863 23.7969 19.7681 23.3994 20.1763 23.4162C20.5256 23.4306 20.7731 23.7019 20.7588 24.0544V24.0537Z" fill="black"/>
<path d="M22.2532 23.3194C21.9075 23.3094 21.6569 23.0375 21.6669 22.6838C21.6775 22.31 22.1407 21.9206 22.5619 21.9319C22.9082 21.9413 23.165 22.2169 23.15 22.5638C23.1344 22.9369 22.6657 23.3313 22.2532 23.3194Z" fill="black"/>
<path d="M18.9306 13.0675C18.94 13.3931 18.6587 13.685 18.3287 13.6931C17.9775 13.7019 17.6687 13.4069 17.6606 13.0563C17.6525 12.72 17.9193 12.4406 18.2575 12.4313C18.6043 12.4213 18.9206 12.7206 18.9312 13.0675H18.9306Z" fill="black"/>
<path d="M16.3113 10.4081C16.6756 10.4031 17.1438 10.8706 17.1475 11.2431C17.1513 11.58 16.8713 11.8681 16.5394 11.87C16.1844 11.8719 15.6975 11.3887 15.6938 11.0306C15.69 10.7044 15.9794 10.4125 16.3106 10.4081H16.3113Z" fill="black"/>
<path d="M13.3244 14.5393L13.3219 14.5368C13.3132 14.5268 13.3038 14.5175 13.2938 14.5075C13.2857 14.4987 13.2769 14.49 13.2675 14.4812L13.265 14.4787C13.2557 14.4681 13.245 14.4581 13.235 14.4487C13.2313 14.445 13.2282 14.4418 13.225 14.4381C13.1863 14.3993 13.1463 14.3606 13.1057 14.3218C13.0669 14.285 13.0275 14.2487 12.9882 14.2125C12.9869 14.2118 12.9863 14.2106 12.985 14.21C12.9763 14.2012 12.9669 14.1931 12.9582 14.185C12.945 14.1731 12.9313 14.1606 12.9175 14.1493C12.9169 14.1481 12.9157 14.1468 12.9144 14.1462C12.9119 14.1443 12.9094 14.1418 12.9069 14.14C11.6713 13.0587 10.075 12.4943 8.46754 12.4562C8.41629 12.4543 8.36441 12.4543 8.31254 12.4543C8.26066 12.4543 8.20879 12.455 8.15691 12.4562C8.09941 12.4575 8.04191 12.46 7.98441 12.4625C7.92879 12.465 7.87316 12.4681 7.81754 12.4718C7.81191 12.4725 7.80629 12.4731 7.80066 12.4731C7.74691 12.4775 7.69316 12.4818 7.63941 12.4868C7.58254 12.4925 7.52504 12.4981 7.46816 12.505C7.41066 12.5118 7.35379 12.5193 7.29691 12.5275C7.23941 12.5356 7.18254 12.5443 7.12629 12.5537C7.07691 12.5618 7.02816 12.5706 6.97879 12.5793C6.90379 12.5937 6.82879 12.6087 6.75379 12.6256C6.70816 12.6356 6.66316 12.6456 6.61816 12.6568C6.56254 12.67 6.50629 12.6843 6.45066 12.6993C6.39941 12.7131 6.34754 12.7275 6.29629 12.7425C6.28816 12.7443 6.28004 12.7468 6.27191 12.7493C6.22066 12.7643 6.17004 12.78 6.11941 12.7962C6.07379 12.8106 6.02816 12.8256 5.98316 12.8412C5.84879 12.8868 5.71566 12.9368 5.58379 12.9912C5.55066 13.0043 5.51754 13.0181 5.48441 13.0325C5.47191 13.0381 5.45879 13.0437 5.44566 13.0493C5.40754 13.0656 5.36941 13.0825 5.33191 13.1006C5.31691 13.1068 5.30254 13.1137 5.28754 13.1212C5.25316 13.1368 5.21879 13.1531 5.18441 13.17C5.17004 13.1768 5.15566 13.1837 5.14129 13.1912C5.09441 13.2137 5.04816 13.2375 5.00254 13.2618C4.95129 13.2887 4.90004 13.3162 4.84941 13.3443C4.80504 13.3687 4.76066 13.3943 4.71629 13.4206C4.70316 13.4281 4.69004 13.4356 4.67691 13.4437C4.63441 13.4687 4.59254 13.495 4.55066 13.5212C4.50816 13.5475 4.46566 13.575 4.42379 13.6031C4.40254 13.6162 4.38191 13.63 4.36129 13.645C4.33691 13.6606 4.31254 13.6775 4.28879 13.6937C4.26691 13.7093 4.24441 13.725 4.22254 13.7406C4.20316 13.7543 4.18379 13.7687 4.16441 13.7825C4.13504 13.8037 4.10566 13.8256 4.07691 13.8475C4.04379 13.8725 4.01129 13.8975 3.97879 13.9237C3.94191 13.9518 3.90566 13.9812 3.87004 14.0106C3.81566 14.055 3.76254 14.1 3.71004 14.1462C3.70879 14.1475 3.70754 14.1481 3.70691 14.1493C3.70504 14.1512 3.70254 14.1531 3.70066 14.155C3.68066 14.1725 3.66066 14.19 3.64129 14.2081C3.64066 14.2087 3.64004 14.2093 3.63941 14.21C3.59879 14.2456 3.55879 14.2831 3.51879 14.3218C3.47441 14.3631 3.43129 14.4056 3.38941 14.4487C3.37816 14.4587 3.36816 14.4687 3.35941 14.4787C3.34691 14.4906 3.33504 14.5025 3.32379 14.5143C3.31691 14.5218 3.30941 14.5293 3.30254 14.5368C3.25691 14.5843 3.21191 14.6325 3.16816 14.6806C3.08879 14.7675 3.01129 14.8562 2.93691 14.9456C2.86504 15.0318 2.79566 15.1187 2.72816 15.2068C2.72816 15.2068 2.72796 15.2073 2.72754 15.2081C2.70504 15.2368 2.68316 15.2656 2.66254 15.295C2.64316 15.32 2.62504 15.345 2.60691 15.37C2.57254 15.4175 2.53879 15.4656 2.50566 15.5131C2.50254 15.5181 2.49941 15.5225 2.49566 15.5275C2.46566 15.5718 2.43566 15.6168 2.40629 15.6618C2.36566 15.7231 2.32691 15.7856 2.28879 15.8481C2.26566 15.885 2.24379 15.9218 2.22191 15.9587C2.19254 16.0087 2.16379 16.0593 2.13566 16.1093C2.10754 16.16 2.08004 16.2106 2.05316 16.2618C2.02629 16.3125 2.00066 16.3637 1.97504 16.415C1.92066 16.5243 1.87004 16.6337 1.82191 16.745C1.80191 16.7906 1.78254 16.8362 1.76379 16.8818C1.73504 16.9525 1.70754 17.0225 1.68191 17.0937C1.66816 17.1287 1.65566 17.1637 1.64316 17.1987C1.62441 17.2518 1.60629 17.305 1.58879 17.3581C1.53754 17.5156 1.49191 17.6743 1.45191 17.8337C1.43816 17.8881 1.42504 17.9425 1.41316 17.9975C1.40004 18.0543 1.38816 18.1118 1.37691 18.1687C1.35566 18.2762 1.33691 18.3837 1.32129 18.4918C1.31066 18.5618 1.30191 18.6312 1.29379 18.7012C1.28879 18.7431 1.28379 18.785 1.28004 18.8275C1.25066 19.1281 1.24129 19.4306 1.25191 19.7325C1.25191 19.7581 1.25379 19.7837 1.25504 19.8093C1.25691 19.845 1.25879 19.88 1.26066 19.9156C1.26379 19.9625 1.26691 20.0093 1.27129 20.0562C1.28566 20.2306 1.30629 20.4043 1.33441 20.5775C1.33879 20.6043 1.34316 20.6306 1.34754 20.6568C1.35379 20.6925 1.36004 20.7275 1.36629 20.7625C1.37504 20.8093 1.38441 20.8562 1.39441 20.9031C1.45066 21.1725 1.52316 21.44 1.61254 21.7043C1.62191 21.7325 1.63129 21.76 1.64129 21.7881C1.65129 21.8175 1.66191 21.8468 1.67254 21.8762C1.68941 21.9225 1.70629 21.9681 1.72441 22.0137C1.73816 22.05 1.75254 22.0862 1.76754 22.1218C1.77816 22.1493 1.78941 22.1768 1.80191 22.2043C1.85504 22.3318 1.91191 22.4581 1.97379 22.5837C1.99066 22.6193 2.00879 22.655 2.02691 22.69C2.04941 22.735 2.07254 22.7793 2.09629 22.8237C2.11504 22.8587 2.13379 22.8937 2.15316 22.9287C2.17441 22.9668 2.19629 23.005 2.21879 23.0431C2.37379 23.3087 2.54754 23.5693 2.74004 23.8231C2.93379 24.0787 3.12816 24.3337 3.32441 24.5881C3.32816 24.5937 3.33254 24.5993 3.33691 24.605C3.34754 24.6187 3.35816 24.6318 3.36816 24.645C3.45754 24.76 3.54566 24.8743 3.63316 24.99C3.63566 24.9931 3.63816 24.9962 3.64066 24.9993C4.73129 26.4168 5.83941 27.8225 6.94316 29.2306C6.94629 29.2343 6.94879 29.2381 6.95191 29.2418C7.11691 29.4475 7.27816 29.6556 7.44004 29.8643C7.44316 29.8687 7.44629 29.8731 7.45004 29.8775C7.60691 30.0781 7.76379 30.2787 7.92066 30.4793C7.95379 30.5225 7.98629 30.56 8.01754 30.5925C8.05191 30.6281 8.08629 30.6575 8.11879 30.6806C8.12754 30.6868 8.13566 30.6925 8.14379 30.6975C8.15254 30.7031 8.16191 30.7081 8.17004 30.7131C8.18629 30.7212 8.20191 30.7281 8.21691 30.7337C8.23316 30.7393 8.24879 30.7437 8.26441 30.7468C8.29629 30.7531 8.32816 30.7531 8.36004 30.7468C8.37566 30.7437 8.39129 30.7393 8.40754 30.7337C8.42316 30.7287 8.43879 30.7212 8.45441 30.7131C8.46316 30.7087 8.47191 30.7031 8.48066 30.6975C8.49691 30.6875 8.51379 30.6756 8.53066 30.6618C8.54316 30.6518 8.55566 30.6412 8.56816 30.6293C8.57879 30.62 8.58941 30.6093 8.60066 30.5987L8.60691 30.5925C8.63816 30.56 8.67066 30.5225 8.70379 30.4793C8.86066 30.2787 9.01754 30.0781 9.17441 29.8775C9.17754 29.8731 9.18129 29.8687 9.18441 29.8643C9.34254 29.6606 9.50004 29.4575 9.66066 29.2562C9.66504 29.2512 9.66879 29.2468 9.67254 29.2418C10.6413 28.0062 11.6125 26.7731 12.5732 25.5318C12.71 25.3543 12.8469 25.1768 12.9838 24.9993C13.0757 24.8812 13.1663 24.7631 13.2563 24.645C13.265 24.635 13.2725 24.6243 13.2807 24.6143C13.4825 24.3512 13.6838 24.0875 13.8844 23.8231C13.9119 23.7868 13.9388 23.7506 13.9657 23.7137C13.9838 23.6887 14.0019 23.6637 14.0194 23.6387C14.0394 23.6118 14.0588 23.5843 14.0775 23.5568C14.1019 23.5225 14.1257 23.4875 14.1488 23.4531C14.1519 23.4481 14.1557 23.4431 14.1588 23.4375C14.1838 23.4006 14.2082 23.3631 14.2319 23.3256C14.2619 23.28 14.2907 23.2343 14.3182 23.1887C14.345 23.1456 14.3707 23.1025 14.3963 23.0587C14.4219 23.0156 14.4469 22.9725 14.4713 22.9287C14.49 22.8937 14.5094 22.8587 14.5282 22.8237C14.5457 22.7906 14.5632 22.7575 14.5807 22.7237C15.9744 20.0168 15.5275 16.84 13.3244 14.5393ZM8.31254 24.2975C5.68441 24.2975 3.52379 22.1356 3.52254 19.505C3.52066 16.8768 5.68191 14.7162 8.31254 14.7162C10.9438 14.7162 13.1044 16.8768 13.1025 19.5056C13.1013 22.1362 10.94 24.2981 8.31254 24.2975Z" fill="#FFB954"/>
<path d="M3.52185 19.5056C3.5231 22.1362 5.68435 24.2981 8.31185 24.2975C10.94 24.2975 13.1006 22.1356 13.1019 19.505C13.1037 16.8769 10.9425 14.7162 8.31185 14.7162C5.6806 14.7162 3.51998 16.8769 3.52185 19.5056ZM4.77123 19.5006C4.77685 17.5544 6.37623 15.96 8.31623 15.9656C10.2637 15.9719 11.8575 17.57 11.8525 19.51C11.8475 21.4544 10.2462 23.0525 8.30748 23.0481C6.3656 23.0437 4.7656 21.4381 4.77123 19.5006Z" fill="black"/>
<path d="M5.43681 27.5306C5.43369 27.8662 5.15244 28.1393 4.81306 28.1362C4.47744 28.1331 4.19306 27.8487 4.19681 27.5193C4.20056 27.1893 4.49056 26.9081 4.82431 26.9106C5.15869 26.9131 5.43994 27.1981 5.43681 27.5306Z" fill="black"/>
<path d="M14.7325 24.7887C13.0456 26.9462 11.3613 29.105 9.68189 31.2687C9.40252 31.6287 9.04127 31.8487 8.62502 32H8.00002C7.41189 31.8212 7.02314 31.4037 6.67502 30.9231C6.34502 30.4681 5.98252 30.0369 5.64127 29.5906C5.46127 29.3544 5.42252 29.0925 5.58627 28.8337C5.72689 28.6112 5.95439 28.495 6.20252 28.5725C6.37752 28.6269 6.55439 28.7556 6.67314 28.8987C6.76439 29.0081 6.85377 29.1187 6.94314 29.2306C6.94627 29.2344 6.94877 29.2381 6.95189 29.2419C7.11689 29.4475 7.27814 29.6556 7.44002 29.8644C7.44314 29.8687 7.44627 29.8731 7.45002 29.8775C7.60314 30.075 7.75564 30.2731 7.91002 30.4694C7.94689 30.5162 7.98252 30.5575 8.01752 30.5925C8.05189 30.6281 8.08627 30.6575 8.11877 30.6806C8.12752 30.6869 8.13564 30.6925 8.14377 30.6975C8.15252 30.7031 8.16189 30.7081 8.17002 30.7131C8.18627 30.7212 8.20189 30.7281 8.21689 30.7337C8.23314 30.7394 8.24877 30.7437 8.26439 30.7469C8.29627 30.7531 8.32814 30.7531 8.36002 30.7469C8.37564 30.7444 8.39189 30.74 8.40752 30.7337C8.42314 30.7287 8.43877 30.7212 8.45439 30.7131C8.46314 30.7087 8.47189 30.7031 8.48064 30.6975C8.49689 30.6875 8.51377 30.6756 8.53064 30.6619C8.54314 30.6519 8.55564 30.6412 8.56814 30.6294C8.57877 30.62 8.58939 30.6094 8.60064 30.5987L8.60689 30.5925C8.63814 30.56 8.67064 30.5225 8.70377 30.4794C8.86064 30.2787 9.01752 30.0781 9.17439 29.8775C9.17752 29.8731 9.18127 29.8687 9.18439 29.8644C9.34314 29.6619 9.50252 29.4587 9.66064 29.2562C9.66502 29.2512 9.66877 29.2469 9.67252 29.2419C10.6413 28.0062 11.6125 26.7731 12.5731 25.5319C12.7106 25.3544 12.8475 25.1775 12.9838 24.9994C13.0756 24.8812 13.1663 24.7631 13.2563 24.645C13.265 24.635 13.2725 24.6244 13.2806 24.6144C13.4825 24.3512 13.6838 24.0875 13.8844 23.8231C13.9119 23.7869 13.9388 23.7506 13.9656 23.7137C13.9838 23.6887 14.0019 23.6637 14.0194 23.6387C14.0394 23.6119 14.0588 23.5844 14.0775 23.5569C14.1019 23.5225 14.1256 23.4875 14.1488 23.4531C14.1519 23.4481 14.1556 23.4431 14.1588 23.4375C14.1838 23.4006 14.2081 23.3631 14.2319 23.3256C14.2619 23.28 14.2906 23.2344 14.3181 23.1887C14.345 23.1456 14.3706 23.1025 14.3963 23.0587C14.4219 23.0156 14.4469 22.9725 14.4713 22.9287C14.49 22.8937 14.5094 22.8587 14.5281 22.8237C14.5463 22.7906 14.5638 22.7575 14.5806 22.7237C15.9919 20.0062 15.5163 16.795 13.3244 14.5394L13.3219 14.5369C13.3131 14.5269 13.3038 14.5175 13.2938 14.5075C13.2856 14.4987 13.2769 14.49 13.2675 14.4812L13.265 14.4787C13.2556 14.4681 13.245 14.4581 13.235 14.4487C13.2313 14.445 13.2281 14.4419 13.225 14.4381C13.1863 14.3994 13.1463 14.3606 13.1056 14.3219C13.0669 14.285 13.0275 14.2487 12.9881 14.2125C12.9869 14.2119 12.9863 14.2106 12.985 14.21C12.9763 14.2012 12.9669 14.1931 12.9581 14.185C12.945 14.1731 12.9313 14.1606 12.9175 14.1494C12.9169 14.1481 12.9156 14.1469 12.9144 14.1462C12.9119 14.1444 12.9094 14.1419 12.9069 14.14C11.6694 13.0431 10.0738 12.4856 8.46752 12.4562C8.41627 12.4544 8.36439 12.4544 8.31252 12.4544C8.26064 12.4544 8.20877 12.455 8.15689 12.4562C8.09939 12.4575 8.04189 12.46 7.98439 12.4625C7.92877 12.465 7.87314 12.4681 7.81752 12.4719C7.81189 12.4725 7.80627 12.4731 7.80064 12.4731C7.74689 12.4775 7.69314 12.4819 7.63939 12.4869C7.58252 12.4925 7.52502 12.4981 7.46814 12.505C7.41064 12.5119 7.35377 12.5194 7.29689 12.5275C7.23939 12.5356 7.18252 12.5444 7.12627 12.5537C7.07689 12.5619 7.02814 12.5706 6.97877 12.5794C6.90377 12.5937 6.82877 12.6087 6.75377 12.6256C6.70814 12.6356 6.66314 12.6456 6.61814 12.6569C6.56252 12.67 6.50627 12.6844 6.45064 12.6994C6.39939 12.7131 6.34752 12.7275 6.29627 12.7425C6.28814 12.7444 6.28002 12.7469 6.27189 12.7494C6.22064 12.7644 6.17002 12.78 6.11939 12.7962C6.07377 12.8106 6.02814 12.8256 5.98314 12.8412C5.84877 12.8869 5.71564 12.9369 5.58377 12.9912C5.55064 13.0044 5.51752 13.0181 5.48439 13.0325C5.47189 13.0381 5.45877 13.0437 5.44564 13.0494C5.40752 13.0656 5.36939 13.0825 5.33189 13.1006C5.31689 13.1069 5.30252 13.1137 5.28752 13.1212C5.25314 13.1369 5.21877 13.1531 5.18439 13.17C5.17002 13.1769 5.15564 13.1837 5.14127 13.1912C5.09439 13.2137 5.04814 13.2375 5.00252 13.2619C4.95127 13.2887 4.90002 13.3162 4.84939 13.3444C4.80502 13.3687 4.76064 13.3944 4.71627 13.4206C4.70314 13.4281 4.69002 13.4356 4.67689 13.4437C4.63439 13.4687 4.59252 13.495 4.55064 13.5212C4.50814 13.5475 4.46564 13.575 4.42377 13.6031C4.40314 13.6162 4.38189 13.63 4.36127 13.645C4.33689 13.6606 4.31252 13.6775 4.28877 13.6937C4.26627 13.7094 4.24439 13.725 4.22252 13.7406C4.20314 13.7544 4.18377 13.7687 4.16439 13.7825C4.13502 13.8037 4.10564 13.8256 4.07689 13.8475C4.04377 13.8725 4.01127 13.8975 3.97877 13.9237C3.94189 13.9519 3.90564 13.9812 3.87002 14.0106C3.81564 14.055 3.76252 14.1 3.71002 14.1462C3.70877 14.1475 3.70752 14.1481 3.70689 14.1494C3.70502 14.1512 3.70252 14.1531 3.70064 14.155C3.68064 14.1725 3.66064 14.19 3.64127 14.2081C3.64064 14.2087 3.64002 14.2094 3.63939 14.21C3.59877 14.2456 3.55877 14.2831 3.51877 14.3219C3.47439 14.3631 3.43127 14.4056 3.38939 14.4487C3.37814 14.4587 3.36814 14.4687 3.35939 14.4787C3.34689 14.4906 3.33502 14.5025 3.32377 14.5144C3.31689 14.5219 3.30939 14.5294 3.30252 14.5369C3.25689 14.5844 3.21189 14.6325 3.16814 14.6806C3.08814 14.7675 3.01127 14.8562 2.93689 14.9456C2.86439 15.0312 2.79502 15.1187 2.72814 15.2069C2.72814 15.2069 2.72794 15.2073 2.72752 15.2081C2.70502 15.2369 2.68314 15.2656 2.66252 15.295C2.64314 15.32 2.62439 15.345 2.60689 15.37C2.57252 15.4175 2.53877 15.465 2.50564 15.5131C2.50252 15.5181 2.49939 15.5225 2.49564 15.5275C2.46502 15.5719 2.43502 15.6169 2.40627 15.6619C2.36564 15.7231 2.32689 15.7856 2.28877 15.8481C2.26564 15.885 2.24314 15.9219 2.22189 15.9587C2.19189 16.0087 2.16314 16.0594 2.13564 16.1094C2.10689 16.16 2.08002 16.2106 2.05314 16.2619C2.02627 16.3125 2.00002 16.3637 1.97502 16.415C1.92064 16.5244 1.87002 16.6337 1.82189 16.745C1.80189 16.7906 1.78252 16.8362 1.76377 16.8819C1.73502 16.9525 1.70752 17.0225 1.68189 17.0937C1.66814 17.1287 1.65502 17.1637 1.64314 17.1987C1.62439 17.2519 1.60627 17.305 1.58877 17.3581C1.53752 17.5156 1.49189 17.6744 1.45189 17.8337C1.43814 17.8881 1.42502 17.9425 1.41314 17.9975C1.40002 18.0544 1.38814 18.1119 1.37689 18.1687C1.35564 18.2762 1.33689 18.3837 1.32127 18.4919C1.31064 18.5619 1.30189 18.6312 1.29377 18.7012C1.28877 18.7431 1.28377 18.7856 1.28002 18.8275C1.25064 19.1281 1.24127 19.4306 1.25189 19.7325C1.25189 19.7581 1.25377 19.7837 1.25502 19.8094C1.25689 19.845 1.25877 19.88 1.26064 19.9156C1.26377 19.9625 1.26689 20.0094 1.27127 20.0562C1.28564 20.2306 1.30627 20.4044 1.33439 20.5775C1.33814 20.6037 1.34252 20.6306 1.34752 20.6569C1.35377 20.6925 1.36002 20.7275 1.36627 20.7625C1.37502 20.8094 1.38439 20.8562 1.39439 20.9031C1.45064 21.1725 1.52314 21.44 1.61252 21.7044C1.62189 21.7325 1.63127 21.7606 1.64127 21.7881C1.65127 21.8175 1.66189 21.8469 1.67252 21.8762C1.68939 21.9225 1.70627 21.9681 1.72439 22.0137C1.73814 22.05 1.75252 22.0862 1.76752 22.1219C1.77814 22.1494 1.78939 22.1769 1.80189 22.2044C1.85502 22.3319 1.91189 22.4581 1.97377 22.5837C1.99064 22.6194 2.00877 22.655 2.02689 22.69C2.04939 22.735 2.07252 22.7794 2.09627 22.8237C2.11502 22.8587 2.13377 22.8937 2.15314 22.9287C2.17439 22.9669 2.19627 23.005 2.21877 23.0431C2.37814 23.3206 2.55877 23.5925 2.75877 23.8575C2.94439 24.1031 3.13502 24.345 3.32439 24.5881C3.32814 24.5937 3.33252 24.5994 3.33689 24.605C3.34752 24.6187 3.35814 24.6319 3.36814 24.645C3.45564 24.76 3.54377 24.875 3.63314 24.99C3.63564 24.9931 3.63814 24.9962 3.64064 24.9994C3.67064 25.0394 3.70127 25.08 3.73127 25.12C3.95877 25.4244 3.95439 25.7412 3.74002 25.975C3.49627 26.2406 3.10627 26.2706 2.85502 25.9931C0.930644 23.8669 -0.299981 21.4812 0.0637691 18.4975C0.493144 14.98 3.14564 12.0881 6.61377 11.375C11.1363 10.445 15.5625 13.3531 16.4525 17.8706C16.9575 20.4331 16.3363 22.7375 14.7325 24.7887Z" fill="black"/>
<path d="M25.64 14.8882C23.6475 14.8963 22.0144 13.2757 22.0106 11.2857C22.0075 9.31065 23.6175 7.69127 25.6006 7.67565C27.595 7.66002 29.2294 9.26878 29.2437 11.2619C29.2581 13.2494 27.6381 14.8794 25.64 14.8875V14.8882ZM25.6131 13.6363C26.9087 13.6463 27.9856 12.5844 27.9931 11.2894C28.0006 10.0125 26.9481 8.94753 25.6587 8.92878C24.3494 8.9094 23.2519 9.99127 23.2625 11.29C23.2731 12.5757 24.3262 13.6263 25.6125 13.6363H25.6131Z" fill="black"/>
<path d="M25.6293 19.6088C25.1637 19.0125 24.7287 18.4569 24.295 17.9C23.3737 16.7175 22.4212 15.5575 21.5406 14.345C20.2906 12.6231 20.1206 10.7513 21.1256 8.87751C22.1287 7.00626 23.7718 6.08001 25.9031 6.18876C27.9275 6.29251 29.4118 7.32188 30.2625 9.15126C31.0987 10.9488 30.92 12.7194 29.7375 14.3125C28.4168 16.0925 27.0231 17.8175 25.6293 19.6081V19.6088ZM25.64 14.8881C27.6381 14.88 29.2581 13.25 29.2437 11.2625C29.2293 9.26938 27.595 7.66001 25.6006 7.67626C23.6175 7.69188 22.0075 9.31126 22.0106 11.2863C22.0137 13.2763 23.6468 14.8969 25.64 14.8888V14.8881Z" fill="#FF5D5D"/>
<path d="M31.9375 12.375C31.8281 12.7406 31.7675 13.1306 31.5993 13.4669C31.2812 14.1056 30.9618 14.7587 30.5368 15.3256C29.2943 16.9825 27.9975 18.5975 26.7275 20.2337C26.3731 20.69 25.9337 20.9737 25.3562 20.8044C25.0768 20.7225 24.7812 20.53 24.6006 20.3019C23.1962 18.5337 21.7825 16.7706 20.4381 14.9569C17.97 11.6269 19.5312 6.66873 23.4443 5.30186C26.9212 4.08748 30.5493 5.87811 31.7012 9.38061C31.795 9.66561 31.8593 9.95936 31.9375 10.2494V12.3744V12.375ZM25.6293 19.6087C27.0237 17.8181 28.4168 16.0931 29.7375 14.3131C30.9193 12.72 31.0981 10.9494 30.2625 9.15186C29.4118 7.32248 27.9281 6.29311 25.9031 6.18936C23.7718 6.08061 22.1293 7.00686 21.1256 8.87811C20.1206 10.7519 20.2906 12.6237 21.5406 14.3456C22.4212 15.5581 23.3737 16.7175 24.295 17.9006C24.7287 18.4575 25.1637 19.0131 25.6293 19.6094V19.6087Z" fill="black"/>
<path d="M14.3307 7.95749C14.02 7.56124 13.73 7.19624 13.445 6.82749C13.0313 6.29249 12.6032 5.76811 12.2138 5.21624C11.6169 4.36999 11.6382 3.20186 12.2319 2.34499C12.8188 1.49749 13.8782 1.09499 14.9244 1.32186C15.8719 1.52686 16.6569 2.38124 16.8288 3.37124C16.945 4.04124 16.8288 4.66811 16.4325 5.20936C15.7588 6.12999 15.0482 7.02374 14.3307 7.95811V7.95749Z" fill="#C9F3FF"/>
<path d="M14.75 1.46484e-05C15.2537 0.18314 15.795 0.30064 16.255 0.561265C18.1556 1.63876 18.7187 4.16939 17.4525 5.94501C16.7769 6.89314 16.0444 7.80126 15.3119 8.70689C14.7719 9.37439 13.8787 9.37876 13.3412 8.71501C12.6281 7.83439 11.9069 6.95501 11.2625 6.02439C9.61312 3.64189 10.865 0.620015 13.7062 0.0537646C13.7437 0.0462646 13.7769 0.0181396 13.8125 -0.000610352C14.125 -0.000610352 14.4375 -0.000610352 14.75 -0.000610352V1.46484e-05ZM14.3306 7.95751C15.0487 7.02314 15.7594 6.12939 16.4325 5.20876C16.8281 4.66751 16.945 4.04126 16.8287 3.37064C16.6569 2.38064 15.8725 1.52626 14.9244 1.32126C13.8775 1.09501 12.8187 1.49751 12.2319 2.34439C11.6381 3.20126 11.6175 4.36939 12.2137 5.21564C12.6031 5.76751 13.0312 6.29189 13.445 6.82689C13.73 7.19564 14.0194 7.56064 14.3306 7.95689V7.95751Z" fill="black"/>
</g>
<defs>
<clipPath id="clip0_108_98">
<rect width="31.9375" height="32" fill="white"/>
</clipPath>
</defs>
</svg>
